# xmcd
#
# Track frame offsets:
# 150
# 18004
# 38467
# 60246
# 80856
# 93880
# 118411
# 139762
# 157727
# 178957
#
# Disc length: 2657 seconds
#
# Revision: 0
# Processed by: cddbd v1.5.2PL0 Copyright (c) Steve Scherf et al.
# Submitted via: Audion 3.0.2 (http://www.panic.com/audion/)
#
DISCID=740a5f0a
DTITLE=Athlete - Black Swan
DYEAR=1900
DGENRE=
TTITLE0=Superhuman Touch
TTITLE1=The Getaway
TTITLE2=Black Swan Song
TTITLE3=Don't Hold Your Breath
TTITLE4=Love Come Rescue
TTITLE5=Light The Way
TTITLE6=The Unknown
TTITLE7=The Awkward Goodbye
TTITLE8=Magical Mistakes
TTITLE9=Rubik's Cube
EXTD=
EXTT0=
EXTT1=
EXTT2=
EXTT3=
EXTT4=
EXTT5=
EXTT6=
EXTT7=
EXTT8=
EXTT9=
PLAYORDER=
